<svg xmlns="http://www.w3.org/2000/svg" width="1400" height="600" viewBox="0 0 1400 600">
  <defs>
    <marker id="arrow" markerWidth="10" markerHeight="8" refX="9" refY="4" orient="auto"><path d="M0,0 L10,4 L0,8 Z" fill="#334155"/></marker>
    <style>
      .box{rx:14;stroke-width:2}.t{font:600 22px Arial,sans-serif;fill:#0f172a}.s{font:18px Arial,sans-serif;fill:#334155}.a{stroke:#334155;stroke-width:3;fill:none;marker-end:url(#arrow)}
    </style>
  </defs>
  <rect width="1400" height="600" fill="#f8fafc"/>
  <text x="700" y="42" text-anchor="middle" class="t" font-size="28">Causal ontology R-GAT PPO pipeline (policy 10 Hz, physics 100 Hz)</text>
  <rect x="35" y="225" width="190" height="120" class="box" fill="#dbeafe" stroke="#2563eb"/>
  <text x="130" y="265" text-anchor="middle" class="t">Environment</text><text x="130" y="296" text-anchor="middle" class="s">CV-CA-CV pad</text><text x="130" y="324" text-anchor="middle" class="s">planar drone</text>
  <rect x="275" y="225" width="190" height="120" class="box" fill="#cffafe" stroke="#0891b2"/>
  <text x="370" y="265" text-anchor="middle" class="t">Causal sensing</text><text x="370" y="296" text-anchor="middle" class="s">camera + tracker</text><text x="370" y="324" text-anchor="middle" class="s">observation memory</text>
  <rect x="515" y="225" width="210" height="120" class="box" fill="#e0e7ff" stroke="#4f46e5"/>
  <text x="620" y="264" text-anchor="middle" class="t">26-field packet</text><text x="620" y="296" text-anchor="middle" class="s">current + memory</text><text x="620" y="324" text-anchor="middle" class="s">no hidden pad truth</text>
  <rect x="785" y="80" width="245" height="100" class="box" fill="#f1f5f9" stroke="#64748b"/>
  <text x="908" y="120" text-anchor="middle" class="t">Baseline PPO</text><text x="908" y="151" text-anchor="middle" class="s">packet vector → MLP</text>
  <rect x="785" y="235" width="245" height="100" class="box" fill="#ffedd5" stroke="#ea580c"/>
  <text x="908" y="275" text-anchor="middle" class="t">Semantic-flat PPO</text><text x="908" y="306" text-anchor="middle" class="s">12×9 graph tensor → MLP</text>
  <rect x="785" y="390" width="245" height="120" class="box" fill="#ede9fe" stroke="#7c3aed"/>
  <text x="908" y="430" text-anchor="middle" class="t">Proposed PPO</text><text x="908" y="461" text-anchor="middle" class="s">108-D raw → MLP</text><text x="908" y="489" text-anchor="middle" class="s">+ R-GAT 4-D residual</text>
  <rect x="1090" y="225" width="130" height="120" class="box" fill="#dcfce7" stroke="#16a34a"/>
  <text x="1155" y="264" text-anchor="middle" class="t">Action</text><text x="1155" y="296" text-anchor="middle" class="s">tanh</text><text x="1155" y="324" text-anchor="middle" class="s">[aₓ, a_z]</text>
  <rect x="1260" y="225" width="110" height="120" class="box" fill="#fee2e2" stroke="#dc2626"/>
  <text x="1315" y="264" text-anchor="middle" class="t">Safety</text><text x="1315" y="296" text-anchor="middle" class="s">causal</text><text x="1315" y="324" text-anchor="middle" class="s">supervisor</text>
  <path class="a" d="M225 285 H275"/><path class="a" d="M465 285 H515"/>
  <path class="a" d="M725 260 C750 220 750 130 785 130"/><path class="a" d="M725 285 H785"/><path class="a" d="M725 310 C750 350 750 450 785 450"/>
  <path class="a" d="M1030 130 C1060 130 1060 250 1090 250"/><path class="a" d="M1030 285 H1090"/><path class="a" d="M1030 450 C1060 450 1060 320 1090 320"/><path class="a" d="M1220 285 H1260"/>
  <path class="a" d="M1315 345 V560 H130 V345"/>
  <text x="700" y="574" text-anchor="middle" class="s">Shared environment, reward, action space, safety logic, and terminal rules</text>
</svg>
